# xmcd CD database file
#
# Track frame offsets:
#	150
#	20938
#	34788
#	51606
#	95465
#	112338
#	129448
#	153692
#	173324
#	193847
#	208003
#
# Disc length: 3106 seconds
#
# Revision: 0
# Processed by: cddbd v1.5.2PL0 Copyright (c) Steve Scherf et al.
# Submitted via: CDex 1.51
#
DISCID=a20c200b
DTITLE=CHIMAIRA - RESURRECTION
DYEAR=2007
DGENRE=Country
TTITLE0=RESURRECTION
TTITLE1=PLEASURE IN PAIN
TTITLE2=WORTHLESS
TTITLE3=SIX
TTITLE4=NO REASON TO LIVE
TTITLE5=KILLING THE BEAST
TTITLE6=THE FLAME
TTITLE7=END IT ALL
TTITLE8=BLACK HEART
TTITLE9=NEEDLE
TTITLE10=EMPIRE
EXTD=YEAR: 2007
EXTT0=
EXTT1=
EXTT2=
EXTT3=
EXTT4=
EXTT5=
EXTT6=
EXTT7=
EXTT8=
EXTT9=
EXTT10=
PLAYORDER=
